<svg xmlns="http://www.w3.org/2000/svg" width="920" height="520" viewBox="0 0 920 520">
  <defs>
    <style>
      text { font-family: 'JetBrains Mono', 'Menlo', 'Monaco', 'Courier New', monospace; font-size: 12px; }
      .bg { fill: #1a1b26; }
      .fg { fill: #a9b1d6; }
      .blue { fill: #7aa2f7; }
      .purple { fill: #bb9af7; }
      .cyan { fill: #7dcfff; }
      .green { fill: #9ece6a; }
      .orange { fill: #e0af68; }
      .red { fill: #f7768e; }
      .peach { fill: #ff9e64; }
      .teal { fill: #73daca; }
      .muted { fill: #565f89; }
      .border { fill: #414868; }
      .bold { font-weight: bold; }
    </style>
  </defs>

  <!-- Window chrome -->
  <rect width="920" height="520" rx="10" class="bg"/>
  <rect x="0" y="0" width="920" height="30" rx="10" fill="#24283b"/>
  <rect x="0" y="20" width="920" height="10" fill="#24283b"/>
  <circle cx="20" cy="15" r="6" fill="#f7768e"/>
  <circle cx="40" cy="15" r="6" fill="#e0af68"/>
  <circle cx="60" cy="15" r="6" fill="#9ece6a"/>
  <text x="460" y="19" text-anchor="middle" class="muted" font-size="11">Copilot Starter</text>

  <!-- Header -->
  <text x="15" y="55" class="blue bold">Copilot Starter</text>
  <text x="155" y="55" class="border">│</text>
  <text x="170" y="55" class="green">35</text>
  <text x="190" y="55" class="muted">/35 sessions</text>
  <text x="300" y="55" class="border">│</text>
  <text x="315" y="55" class="purple">6</text>
  <text x="328" y="55" class="muted">projects</text>
  <text x="400" y="55" class="border">│</text>
  <text x="415" y="55" class="teal">[time]</text>

  <line x1="0" y1="65" x2="920" y2="65" stroke="#414868" stroke-width="1"/>
  <line x1="460" y1="65" x2="460" y2="484" stroke="#414868" stroke-width="1"/>

  <!-- LEFT PANEL -->
  <text x="15" y="85" class="green bold">+ New Conversation</text>

  <text x="15" y="110" class="blue">copilot-starter</text>
  <text x="155" y="110" class="orange">Today 21:29</text>
  <text x="285" y="110" class="teal bold">Session Initialization</text>

  <text x="15" y="135" class="purple">ClaudeHook</text>
  <text x="155" y="135" class="orange">Today 21:18</text>
  <text x="285" y="135" class="teal bold">Set Default Allow All Permissions</text>

  <text x="15" y="160" class="cyan">workspace</text>
  <text x="155" y="160" class="orange">Today 21:08</text>
  <text x="285" y="160" class="teal bold">Welcome Session</text>

  <text x="15" y="185" class="green">MyWebTracker</text>
  <text x="155" y="185" class="orange">Yesterday 19:42</text>
  <text x="285" y="185" class="fg">添加飞行轨迹热力图</text>

  <text x="15" y="210" class="peach">OpenCLI</text>
  <text x="155" y="210" class="orange">Yesterday 16:30</text>
  <text x="285" y="210" class="fg">Write adapter for new site</text>

  <!-- Selected row -->
  <rect x="2" y="223" width="456" height="22" rx="2" fill="#3d59a1"/>
  <text x="15" y="238" fill="#bb9af7" class="bold">my-saas-api</text>
  <text x="155" y="238" fill="#e0af68">2d ago 15:44</text>
  <text x="285" y="238" fill="#73daca" class="bold">重构认证 JWT</text>

  <text x="15" y="263" class="blue">copilot-starter</text>
  <text x="155" y="263" class="orange">2d ago 10:22</text>
  <text x="285" y="263" class="fg">Port TUI to Copilot sessions</text>

  <text x="15" y="288" class="peach">infra-deploy</text>
  <text x="155" y="288" class="orange">3d ago 09:15</text>
  <text x="285" y="288" class="fg">迁移到 OpenTofu</text>

  <text x="15" y="313" class="green">MyWebTracker</text>
  <text x="155" y="313" class="orange">3d ago 08:42</text>
  <text x="285" y="313" class="fg">Optimize map render latency</text>

  <text x="15" y="338" class="purple">my-saas-api</text>
  <text x="155" y="338" class="orange">4d ago 14:10</text>
  <text x="285" y="338" class="fg">Stripe webhook integration</text>

  <text x="15" y="363" class="cyan">workspace</text>
  <text x="155" y="363" class="orange">5d ago 21:33</text>
  <text x="285" y="363" class="fg">Remove failed skill</text>

  <text x="15" y="388" class="blue">copilot-starter</text>
  <text x="155" y="388" class="orange">5d ago 11:05</text>
  <text x="285" y="388" class="fg">暗黑模式切换动画</text>

  <text x="15" y="413" class="peach">OpenCLI</text>
  <text x="155" y="413" class="orange">6d ago 17:28</text>
  <text x="285" y="413" class="fg">Fix CI pipeline timeout</text>

  <!-- RIGHT PANEL -->
  <text x="475" y="85" class="purple bold">█ my-saas-api</text>
  <text x="475" y="103" class="teal bold">重构认证 JWT</text>
  <line x1="475" y1="113" x2="890" y2="113" stroke="#414868" stroke-width="1"/>

  <text x="475" y="135" class="muted">Session</text>
  <text x="585" y="135" class="cyan">a1b2c3d4-e5f6...</text>
  <text x="475" y="155" class="muted">Started</text>
  <text x="585" y="155" class="orange">4/1/2026, 3:44 PM</text>
  <text x="475" y="175" class="muted">Last active</text>
  <text x="585" y="175" class="orange">4/1/2026, 5:21 PM</text>
  <text x="475" y="195" class="muted">Duration</text>
  <text x="585" y="195" class="green">1h 37m</text>
  <text x="475" y="215" class="muted">Messages</text>
  <text x="585" y="215" class="blue">42</text>
  <text x="475" y="235" class="muted">Branch</text>
  <text x="585" y="235" class="teal">feat/auth-refactor</text>
  <text x="475" y="255" class="muted">Directory</text>
  <text x="585" y="255" class="muted">~/dev/my-saas-api</text>

  <text x="475" y="285" class="cyan bold">Files Touched</text>
  <text x="563" y="285" class="muted">(7)</text>
  <text x="475" y="305" class="border">[</text><text x="483" y="305" class="cyan">edit</text><text x="513" y="305" class="border">]</text>
  <text x="523" y="305" class="border">[</text><text x="531" y="305" class="cyan">create</text><text x="579" y="305" class="border">]</text>

  <text x="475" y="335" class="purple bold">Conversation</text>
  <line x1="475" y1="343" x2="890" y2="343" stroke="#414868" stroke-width="1"/>

  <text x="475" y="365" class="blue bold">You ></text>
  <text x="525" y="365" class="fg">重构认证模块，换成 JWT</text>
  <text x="475" y="383" class="green">Copilot ></text>
  <text x="555" y="383" class="muted">I'll refactor the auth module to use JWT...</text>

  <text x="475" y="410" class="blue bold">You ></text>
  <text x="525" y="410" class="fg">refresh token 过期设多少</text>
  <text x="475" y="428" class="green">Copilot ></text>
  <text x="555" y="428" class="muted">7-30 days is standard. I'd recommend 14d...</text>

  <text x="475" y="455" class="blue bold">You ></text>
  <text x="525" y="455" class="fg">Add tests for token rotation</text>

  <!-- Bottom separator -->
  <line x1="0" y1="485" x2="920" y2="485" stroke="#414868" stroke-width="1"/>

  <!-- Footer — colorized by category -->
  <text x="15" y="507" class="green bold">n</text><text x="27" y="507" class="green"> New</text>
  <text x="62" y="507" class="border">│</text>
  <text x="74" y="507" class="blue bold">↵</text><text x="86" y="507" class="blue"> Resume</text>
  <text x="148" y="507" class="border">│</text>
  <text x="160" y="507" class="purple bold">m</text><text x="172" y="507" class="purple"> Mode</text>
  <text x="215" y="507" class="border">│</text>
  <text x="227" y="507" class="red bold">d</text><text x="239" y="507" class="red"> Danger</text>
  <text x="300" y="507" class="border">│</text>
  <text x="312" y="507" class="orange bold">/</text><text x="324" y="507" class="orange"> Search</text>
  <text x="385" y="507" class="border">│</text>
  <text x="397" y="507" class="cyan bold">p</text><text x="409" y="507" class="cyan"> Project</text>
  <text x="472" y="507" class="border">│</text>
  <text x="484" y="507" class="teal bold">s</text><text x="496" y="507" class="teal"> Sort</text>
  <text x="535" y="507" class="border">│</text>
  <text x="547" y="507" class="peach bold">r</text><text x="559" y="507" class="peach"> Rename</text>
  <text x="622" y="507" class="border">│</text>
  <text x="634" y="507" class="red bold">x</text><text x="646" y="507" class="red"> Delete</text>
  <text x="705" y="507" class="border">│</text>
  <text x="717" y="507" class="muted bold">q</text><text x="729" y="507" class="muted"> Quit</text>
</svg>
